<svg
  xmlns="http://www.w3.org/2000/svg"
  xmlns:xlink="http://www.w3.org/1999/xlink"
  aria-hidden="true"
  role="img"
  width="64"
  height="64"
  preserveAspectRatio="xMidYMid meet"
  viewBox="0 0 24 24"
>
  <g fill="none" stroke="#0000FF" stroke-width="2" stroke-linecap="round" stroke-linejoin="round">
    <path d="M5 12a7 7 0 0 1 14 0v3a3 3 0 0 1-3 3h-1a1 1 0 0 1-1-1v-6a1 1 0 0 1 1-1h1a2 2 0 1 1 0 4v2"></path>
    <path d="M9 21H5a2 2 0 0 1-2-2v-4a2 2 0 0 1 2-2h1a2 2 0 0 1 2 2v3a3 3 0 0 1-3 3v-3"></path>
  </g>
</svg>
